{
	"asset":{
		"generator":"Khronos glTF Blender I/O v3.5.30",
		"version":"2.0"
	},
	"scene":0,
	"scenes":[
		{
			"name":"Scene",
			"nodes":[
				0
			]
		}
	],
	"nodes":[
		{
			"mesh":0,
			"name":"Cylinder",
			"rotation":[
				-0.6933993101119995,
				0.13855485618114471,
				-0.13855485618114471,
				0.6933992505073547
			],
			"scale":[
				-0.3099999725818634,
				-0.6000000238418579,
				-0.3099999725818634
			]
		}
	],
	"animations":[
		{
			"channels":[
				{
					"sampler":0,
					"target":{
						"node":0,
						"path":"rotation"
					}
				}
			],
			"name":"CylinderAction",
			"samplers":[
				{
					"input":4,
					"interpolation":"STEP",
					"output":5
				}
			]
		}
	],
	"materials":[
		{
			"doubleSided":true,
			"name":"Material.001",
			"pbrMetallicRoughness":{
				"baseColorTexture":{
					"index":0
				},
				"metallicFactor":0,
				"roughnessFactor":0.5
			}
		}
	],
	"meshes":[
		{
			"name":"Cylinder",
			"primitives":[
				{
					"attributes":{
						"POSITION":0,
						"TEXCOORD_0":1,
						"NORMAL":2
					},
					"indices":3,
					"material":0
				}
			]
		}
	],
	"textures":[
		{
			"sampler":0,
			"source":0
		}
	],
	"images":[
		{
			"mimeType":"image/png",
			"name":"ciggy",
			"uri":"ciggy.png"
		}
	],
	"accessors":[
		{
			"bufferView":0,
			"componentType":5126,
			"count":268,
			"max":[
				1,
				4.471124649047852,
				0.9999998211860657
			],
			"min":[
				-1,
				-2.4081978797912598,
				-1.000000238418579
			],
			"type":"VEC3"
		},
		{
			"bufferView":1,
			"componentType":5126,
			"count":268,
			"type":"VEC2"
		},
		{
			"bufferView":2,
			"componentType":5126,
			"count":268,
			"type":"VEC3"
		},
		{
			"bufferView":3,
			"componentType":5123,
			"count":384,
			"type":"SCALAR"
		},
		{
			"bufferView":4,
			"componentType":5126,
			"count":1,
			"max":[
				-3.2083333333333335
			],
			"min":[
				-3.2083333333333335
			],
			"type":"SCALAR"
		},
		{
			"bufferView":5,
			"componentType":5126,
			"count":1,
			"type":"VEC4"
		}
	],
	"bufferViews":[
		{
			"buffer":0,
			"byteLength":3216,
			"byteOffset":0,
			"target":34962
		},
		{
			"buffer":0,
			"byteLength":2144,
			"byteOffset":3216,
			"target":34962
		},
		{
			"buffer":0,
			"byteLength":3216,
			"byteOffset":5360,
			"target":34962
		},
		{
			"buffer":0,
			"byteLength":768,
			"byteOffset":8576,
			"target":34963
		},
		{
			"buffer":0,
			"byteLength":4,
			"byteOffset":9344
		},
		{
			"buffer":0,
			"byteLength":16,
			"byteOffset":9348
		}
	],
	"samplers":[
		{
			"magFilter":9729,
			"minFilter":9987
		}
	],
	"buffers":[
		{
			"byteLength":9364,
			"uri":"cig.bin"
		}
	]
}
