{
	"asset":{
		"generator":"Khronos glTF Blender I/O v3.5.30",
		"version":"2.0"
	},
	"extensionsUsed":[
		"KHR_materials_specular",
		"KHR_materials_ior"
	],
	"scene":0,
	"scenes":[
		{
			"name":"Scene",
			"nodes":[
				0,
				1
			]
		}
	],
	"nodes":[
		{
			"name":"refrence",
			"rotation":[
				0.7169106006622314,
				0,
				0,
				0.6971651315689087
			]
		},
		{
			"mesh":0,
			"name":"Plane",
			"rotation":[
				0.7163020372390747,
				0,
				0,
				0.6977903842926025
			],
			"translation":[
				0.020298058167099953,
				0.0020760090555995703,
				0.3082200884819031
			]
		}
	],
	"materials":[
		{
			"doubleSided":true,
			"extensions":{
				"KHR_materials_specular":{
					"specularColorFactor":[
						0.09671698574787212,
						0.09671698574787212,
						0.09671698574787212
					]
				},
				"KHR_materials_ior":{
					"ior":1.4500000476837158
				}
			},
			"name":"Material",
			"normalTexture":{
				"index":0
			},
			"pbrMetallicRoughness":{
				"baseColorTexture":{
					"index":1
				},
				"metallicFactor":0.32930517196655273,
				"roughnessFactor":0.6993957757949829
			}
		}
	],
	"meshes":[
		{
			"name":"Plane",
			"primitives":[
				{
					"attributes":{
						"POSITION":0,
						"TEXCOORD_0":1,
						"NORMAL":2
					},
					"indices":3,
					"material":0
				}
			]
		}
	],
	"textures":[
		{
			"sampler":0,
			"source":0
		},
		{
			"sampler":0,
			"source":0
		}
	],
	"images":[
		{
			"mimeType":"image/png",
			"name":"RustedMetal",
			"uri":"RustedMetal.png"
		}
	],
	"accessors":[
		{
			"bufferView":0,
			"componentType":5126,
			"count":1675,
			"max":[
				1.8995920419692993,
				1.2364381518636947e-07,
				1.0062521696090698
			],
			"min":[
				-2.2543301582336426,
				-0.6195951104164124,
				-1.3448853492736816
			],
			"type":"VEC3"
		},
		{
			"bufferView":1,
			"componentType":5126,
			"count":1675,
			"type":"VEC2"
		},
		{
			"bufferView":2,
			"componentType":5126,
			"count":1675,
			"type":"VEC3"
		},
		{
			"bufferView":3,
			"componentType":5123,
			"count":3132,
			"type":"SCALAR"
		}
	],
	"bufferViews":[
		{
			"buffer":0,
			"byteLength":20100,
			"byteOffset":0,
			"target":34962
		},
		{
			"buffer":0,
			"byteLength":13400,
			"byteOffset":20100,
			"target":34962
		},
		{
			"buffer":0,
			"byteLength":20100,
			"byteOffset":33500,
			"target":34962
		},
		{
			"buffer":0,
			"byteLength":6264,
			"byteOffset":53600,
			"target":34963
		}
	],
	"samplers":[
		{
			"magFilter":9729,
			"minFilter":9987
		}
	],
	"buffers":[
		{
			"byteLength":59864,
			"uri":"Kuckles.bin"
		}
	]
}
